HIERARCHY
ROOT Hips
{
	OFFSET 7.7125 38.4228 -161.4020
	CHANNELS 6 Xposition Yposition Zposition Xrotation Yrotation Zrotation
	JOINT Spine
	{
		OFFSET 0.0000 7.4000 0.0000
		CHANNELS 3 Xrotation Yrotation Zrotation
		JOINT Head
		{
			OFFSET 0.0000 16.5127 0.0000
			CHANNELS 3 Xrotation Yrotation Zrotation
			End Site
			{
				OFFSET 0.0000 4.5275 0.0000
			}
		}
		JOINT LeftShoulder
		{
			OFFSET 0.0000 11.0747 0.0000
			CHANNELS 3 Xrotation Yrotation Zrotation
			JOINT LeftArm
			{
				OFFSET 8.2554 0.0000 0.0000
				CHANNELS 3 Xrotation Yrotation Zrotation
				JOINT LeftForeArm
				{
					OFFSET 11.1751 0.0000 0.0000
					CHANNELS 3 Xrotation Yrotation Zrotation
					JOINT LeftHand
					{
						OFFSET 9.4775 0.0000 0.0000
						CHANNELS 3 Xrotation Yrotation Zrotation
						JOINT LeftHandThumb1
						{
							OFFSET 0.0000 0.0000 0.0000
							CHANNELS 3 Xrotation Yrotation Zrotation
							End Site
							{
								OFFSET 0.0000 0.0000 3.9370
							}
						}
						JOINT LeftHand_End
						{
							OFFSET 3.9370 0.0000 0.0000
							CHANNELS 3 Xrotation Yrotation Zrotation
							End Site
							{
								OFFSET 0.0000 0.0000 0.0000
							}
						}
					}
				}
			}
		}
		JOINT RightShoulder
		{
			OFFSET 0.0000 11.0747 0.0000
			CHANNELS 3 Xrotation Yrotation Zrotation
			JOINT RightArm
			{
				OFFSET -8.2554 0.0000 0.0000
				CHANNELS 3 Xrotation Yrotation Zrotation
				JOINT RightForeArm
				{
					OFFSET -11.1751 0.0000 0.0000
					CHANNELS 3 Xrotation Yrotation Zrotation
					JOINT RightHand
					{
						OFFSET -9.4775 0.0000 0.0000
						CHANNELS 3 Xrotation Yrotation Zrotation
						JOINT RightHandThumb1
						{
							OFFSET 0.0000 0.0000 0.0000
							CHANNELS 3 Xrotation Yrotation Zrotation
							End Site
							{
								OFFSET 0.0000 0.0000 3.9370
							}
						}
						JOINT RightHand_End
						{
							OFFSET -3.9370 0.0000 0.0000
							CHANNELS 3 Xrotation Yrotation Zrotation
							End Site
							{
								OFFSET 0.0000 0.0000 0.0000
							}
						}
					}
				}
			}
		}
	}
	JOINT LeftUpLeg
	{
		OFFSET 3.6339 0.0000 0.0000
		CHANNELS 3 Xrotation Yrotation Zrotation
		JOINT LeftLeg
		{
			OFFSET 0.0000 -18.3740 0.0000
			CHANNELS 3 Xrotation Yrotation Zrotation
			JOINT LeftFoot
			{
				OFFSET 0.0000 -17.5024 0.0000
				CHANNELS 3 Xrotation Yrotation Zrotation
				JOINT LeftToeBase
				{
					OFFSET 0.0000 -1.4944 5.5772
					CHANNELS 3 Xrotation Yrotation Zrotation
					End Site
					{
						OFFSET 0.0000 0.0000 2.9527
					}
				}
			}
		}
	}
	JOINT RightUpLeg
	{
		OFFSET -3.6339 0.0000 0.0000
		CHANNELS 3 Xrotation Yrotation Zrotation
		JOINT RightLeg
		{
			OFFSET 0.0000 -18.3740 0.0000
			CHANNELS 3 Xrotation Yrotation Zrotation
			JOINT RightFoot
			{
				OFFSET 0.0000 -17.5024 0.0000
				CHANNELS 3 Xrotation Yrotation Zrotation
				JOINT RightToeBase
				{
					OFFSET 0.0000 -1.4944 5.5772
					CHANNELS 3 Xrotation Yrotation Zrotation
					End Site
					{
						OFFSET 0.0000 0.0000 2.9527
					}
				}
			}
		}
	}
}
MOTION
Frames: 19
Frame Time: 0.008333
35.0986 35.2169 74.0875 -0.8696 -77.4926 2.8237 18.5878 -12.2284 -0.6838 -20.1108 -35.4885 3.9817 0.9763 20.3208 8.4817 4.4284 -18.6577 -79.4952 18.7594 -43.9008 13.2521 1.7755 8.8147 -11.4361 -0.0000 0.0000 -0.0000 -0.0000 0.0000 -0.0000 0.4868 -2.7584 -5.8481 -13.6476 24.3694 90.4812 -0.6686 30.5519 0.3399 0.1704 -5.4412 1.7963 -0.0000 0.0000 -0.0000 -0.0000 0.0000 -0.0000 -22.8870 -14.4406 11.1458 67.6394 0.0000 -0.0000 -16.1876 9.0587 -14.9412 3.8577 -0.0000 -0.0000 -4.0465 -1.0318 15.6197 22.2707 0.0000 -0.0000 -21.0033 -2.2734 9.4902 -1.5063 -0.0000 -0.0000 
34.5235 35.3136 74.2166 -0.0356 -78.5420 3.9427 18.4093 -11.8502 -1.1230 -20.2322 -35.4955 3.7510 1.3412 20.4571 8.2029 4.9256 -18.1535 -79.5269 18.1158 -41.9459 12.3353 1.8775 8.9215 -11.9351 -0.0000 0.0000 -0.0000 -0.0000 0.0000 -0.0000 0.5819 -2.6083 -6.2046 -14.1363 24.8629 90.8034 0.6662 33.8721 -0.3713 0.1501 -5.3636 1.6057 -0.0000 0.0000 -0.0000 -0.0000 0.0000 -0.0000 -24.1018 -15.1614 10.2810 65.3059 0.0000 -0.0000 -16.2897 9.8408 -14.0887 2.7636 -0.0000 0.0000 -2.6307 -0.3310 15.2287 21.1115 -0.0000 0.0000 -20.6560 -1.8102 9.8390 -1.7825 -0.0000 0.0000 
33.9448 35.3973 74.3432 1.1461 -79.6197 5.3762 18.2195 -11.4288 -1.5264 -20.3772 -35.2728 3.5030 1.6849 20.6294 7.9681 5.5401 -17.7389 -79.5213 17.8456 -40.3618 11.7771 2.0462 9.2927 -12.4758 -0.0000 0.0000 -0.0000 -0.0000 0.0000 -0.0000 0.6006 -2.4755 -6.5362 -14.5294 25.5355 90.9472 1.9338 37.2657 -1.1712 0.1483 -5.3270 1.5972 -0.0000 0.0000 -0.0000 -0.0000 0.0000 -0.0000 -25.1867 -15.8967 9.5611 62.8063 0.0000 -0.0000 -16.3207 10.7214 -14.4292 2.6578 0.0000 0.0000 -1.2440 0.4257 14.8114 19.9655 -0.0000 0.0000 -20.3146 -1.3357 10.5193 -1.8068 -0.0000 -0.0000 
33.3623 35.4720 74.4744 2.4426 -80.7835 6.9028 18.1016 -10.9720 -1.8698 -20.6532 -34.9885 3.1753 2.0681 20.8825 7.6992 6.2394 -17.5173 -79.4143 17.7859 -39.1705 11.4544 2.2518 9.6531 -13.1975 -0.0000 0.0000 -0.0000 -0.0000 0.0000 -0.0000 0.4582 -2.2531 -6.8802 -14.7619 26.1675 90.9363 3.3756 40.7964 -2.2070 0.1915 -5.6981 1.9280 -0.0000 0.0000 -0.0000 -0.0000 0.0000 -0.0000 -26.0947 -16.3223 9.0206 59.9786 -0.0000 -0.0000 -15.9672 11.5255 -14.3327 2.4966 -0.0000 -0.0000 0.1526 1.0080 14.3255 18.9441 0.0000 -0.0000 -19.8490 -0.5332 10.8464 -2.2256 -0.0000 0.0000 
32.7721 35.5331 74.6046 4.1484 -82.0494 8.8080 17.9983 -10.4270 -2.1770 -20.9511 -34.7097 2.8131 2.5524 21.2389 7.3823 6.9400 -17.4517 -79.2164 17.8495 -38.3861 11.3077 2.5180 10.0532 -14.1399 -0.0000 0.0000 -0.0000 -0.0000 0.0000 -0.0000 0.5383 -2.0635 -7.1847 -15.1537 26.9900 90.7482 5.1773 44.2852 -3.6200 0.1985 -5.9614 1.9110 -0.0000 0.0000 -0.0000 -0.0000 0.0000 -0.0000 -26.8185 -16.4301 8.7027 56.8683 0.0000 -0.0000 -15.9352 12.3801 -14.6435 2.8662 -0.0000 -0.0000 1.4859 1.9106 13.8583 17.9623 -0.0000 0.0000 -19.5279 -0.0355 11.5546 -2.1090 0.0000 0.0000 
32.1694 35.5788 74.7337 6.2161 -83.3871 11.1212 17.9162 -9.8445 -2.5814 -21.1979 -34.4856 2.5487 3.0812 21.6438 7.1796 7.7475 -17.6073 -79.0170 18.2109 -37.9709 11.4430 2.7337 10.3844 -14.8369 -0.0000 0.0000 -0.0000 -0.0000 0.0000 -0.0000 0.3470 -1.8562 -7.4817 -15.3290 27.6858 90.5028 6.9941 47.6438 -5.1801 0.2606 -6.0515 2.4701 -0.0000 0.0000 -0.0000 -0.0000 0.0000 -0.0000 -27.2918 -16.1807 8.5104 53.3551 0.0000 -0.0000 -16.0163 13.4824 -14.8824 3.7178 0.0000 0.0000 2.9941 2.5497 13.2648 16.9141 -0.0000 0.0000 -19.0849 0.8243 11.9163 -2.3064 0.0000 0.0000 
31.5530 35.6126 74.8503 8.3653 -84.6758 13.3979 17.9539 -9.2689 -2.8207 -21.5041 -34.2181 2.2503 3.6210 22.0752 6.9854 8.6393 -17.9175 -78.7816 18.6013 -37.8684 11.6730 2.8929 10.4816 -15.5244 -0.0000 0.0000 -0.0000 -0.0000 0.0000 -0.0000 0.1646 -1.6460 -7.7317 -15.4367 28.5011 90.0993 9.4462 51.0685 -7.3745 0.3069 -6.6272 2.6571 -0.0000 0.0000 -0.0000 -0.0000 0.0000 -0.0000 -27.5395 -15.8552 8.5825 49.6872 0.0000 -0.0000 -15.5872 13.6890 -14.4175 2.9073 0.0000 -0.0000 4.5953 3.0302 12.7872 15.9181 -0.0000 -0.0000 -18.5162 1.7404 12.1187 -2.9474 -0.0000 -0.0000 
30.9329 35.6324 74.9678 12.8043 -86.0536 17.9395 17.9463 -8.6039 -3.0460 -21.8078 -34.0161 1.9513 4.2778 22.5495 6.7834 9.5470 -18.3279 -78.5501 18.9476 -38.0890 11.9574 2.9676 10.4167 -15.9989 -0.0000 0.0000 -0.0000 -0.0000 0.0000 -0.0000 -0.0909 -1.5166 -8.0317 -15.6226 29.4104 89.7085 11.9907 54.2197 -9.7762 0.3716 -7.2586 2.9389 -0.0000 0.0000 -0.0000 -0.0000 0.0000 -0.0000 -27.6486 -15.2569 8.8255 45.7872 0.0000 -0.0000 -15.1711 13.9604 -14.6616 2.8237 0.0000 0.0000 6.1263 3.6784 12.2726 14.9440 0.0000 0.0000 -17.9381 2.6422 12.2800 -3.9819 -0.0000 -0.0000 
30.3032 35.6347 75.0765 21.6798 -87.3730 26.8878 17.9233 -7.9644 -3.2584 -22.0348 -33.5550 1.7032 4.9297 23.1113 6.6567 10.5445 -18.8685 -78.2888 19.0283 -38.6809 12.1637 3.0407 10.2869 -16.5659 -0.0000 0.0000 -0.0000 -0.0000 0.0000 -0.0000 -0.4251 -1.3437 -8.3225 -15.7291 30.0915 89.2869 14.3690 57.2311 -12.1564 0.4805 -7.8441 3.5161 -0.0000 0.0000 -0.0000 -0.0000 0.0000 -0.0000 -27.6199 -14.4217 9.2131 41.6228 0.0000 -0.0000 -14.8628 14.2980 -15.7922 3.3414 -0.0000 0.0000 7.7246 3.9841 11.7199 14.0141 -0.0000 -0.0000 -17.4776 3.7550 12.5030 -4.3148 -0.0000 -0.0000 
29.6708 35.6203 75.1864 48.4235 -88.5079 53.6761 17.8226 -7.2952 -3.4280 -22.2055 -33.1511 1.4674 5.6611 23.7221 6.5210 11.5574 -19.4611 -78.0168 19.2083 -39.5032 12.4962 3.0604 10.0423 -17.0459 -0.0000 0.0000 -0.0000 -0.0000 0.0000 -0.0000 -0.7220 -1.2046 -8.6181 -15.8867 30.7768 88.8193 16.4367 59.9974 -14.3314 0.5874 -8.2465 4.0883 -0.0000 0.0000 -0.0000 -0.0000 0.0000 -0.0000 -27.5484 -13.2300 9.7147 37.2570 0.0000 -0.0000 -14.4250 14.4450 -16.5805 3.7170 0.0000 0.0000 9.2740 4.2373 11.1273 13.1111 -0.0000 -0.0000 -17.0452 4.8941 12.6797 -4.6198 -0.0000 -0.0000 
29.0213 35.5912 75.2946 107.5663 -88.7673 112.8253 17.7967 -6.7144 -3.4972 -22.4196 -32.8240 1.2115 6.3878 24.3758 6.3672 12.6279 -20.0181 -77.6958 19.0900 -40.6314 12.7004 3.0904 9.7716 -17.6463 -0.0000 0.0000 -0.0000 -0.0000 0.0000 -0.0000 -1.0810 -1.0466 -9.0017 -16.0369 31.3734 88.3823 17.6107 62.5027 -15.7254 0.6878 -8.1084 4.8649 -0.0000 0.0000 -0.0000 -0.0000 0.0000 -0.0000 -27.2929 -11.9414 10.2182 32.6943 0.0000 -0.0000 -13.7824 14.4140 -17.8212 3.6130 -0.0000 -0.0000 10.9388 4.2907 10.5234 12.1910 -0.0000 0.0000 -16.5469 6.1663 13.1033 -5.1715 -0.0000 0.0000 
28.3552 35.5451 75.4011 142.8526 -87.9840 148.1282 17.7236 -6.2066 -3.5435 -22.5150 -32.3893 0.9823 7.2302 25.0462 6.2059 13.6110 -20.4981 -77.3878 19.1018 -41.9244 13.0285 3.1230 9.4844 -18.3202 -0.0000 0.0000 -0.0000 -0.0000 0.0000 -0.0000 -1.4667 -0.9666 -9.3596 -16.1593 31.8277 87.9428 19.2098 64.9640 -17.5204 0.8919 -8.7329 5.8546 -0.0000 0.0000 -0.0000 -0.0000 0.0000 -0.0000 -27.0596 -10.3598 10.6844 28.1502 0.0000 -0.0000 -13.1697 13.9465 -18.7715 3.0783 -0.0000 -0.0000 12.6277 4.1561 9.8853 11.3217 -0.0000 0.0000 -16.1465 7.4610 13.6123 -5.4981 -0.0000 -0.0000 
27.6837 35.4855 75.5087 155.9778 -86.9396 161.2755 17.6367 -5.7959 -3.5710 -22.5592 -31.9793 0.8008 8.0428 25.7972 6.0627 14.5582 -20.8772 -77.1274 19.4742 -43.1821 13.6031 3.0851 9.1200 -18.7800 -0.0000 0.0000 -0.0000 -0.0000 0.0000 -0.0000 -1.8033 -0.7991 -9.7457 -16.3270 32.2712 87.5124 19.5907 67.2094 -18.1654 0.9917 -8.8398 6.4266 -0.0000 0.0000 -0.0000 -0.0000 0.0000 -0.0000 -26.7535 -8.7894 11.0571 23.6094 0.0000 -0.0000 -12.7185 13.5547 -20.3879 2.9024 0.0000 0.0000 14.1899 3.9717 9.2081 10.7103 0.0000 0.0000 -15.8702 8.8217 13.8669 -6.0268 0.0000 -0.0000 
26.9803 35.4093 75.6225 163.7496 -86.0166 169.1128 17.6548 -5.4913 -3.5640 -22.6057 -31.7443 0.5625 8.7971 26.4828 5.9408 15.5584 -21.1635 -76.8513 19.6332 -44.6173 14.0665 3.0995 8.9115 -19.2675 -0.0000 0.0000 -0.0000 -0.0000 0.0000 -0.0000 -2.1953 -0.7218 -10.1828 -16.4522 32.6786 87.1279 19.7716 69.3176 -18.5875 1.1286 -9.2106 7.0163 -0.0000 0.0000 -0.0000 -0.0000 0.0000 -0.0000 -26.2602 -7.3069 11.2669 19.2009 0.0000 -0.0000 -12.3000 13.0654 -22.3368 2.0634 0.0000 0.0000 15.8442 3.7641 8.5024 10.2552 -0.0000 -0.0000 -15.6165 10.0477 14.0992 -6.7087 -0.0000 -0.0000 
26.2789 35.3200 75.7399 167.5770 -85.0763 173.0279 17.5500 -5.2098 -3.5415 -22.5987 -31.5237 0.2732 9.6086 27.1642 5.7923 16.4353 -21.3342 -76.6102 20.0446 -46.0049 14.7069 3.0906 8.5959 -19.8618 -0.0000 0.0000 -0.0000 -0.0000 0.0000 -0.0000 -2.5771 -0.5716 -10.6985 -16.5139 32.8243 86.8088 20.6344 71.1827 -19.6178 1.3025 -9.6495 7.7245 -0.0000 0.0000 -0.0000 -0.0000 0.0000 -0.0000 -25.9318 -5.6604 11.3882 15.1370 0.0000 -0.0000 -12.1827 12.2458 -24.2924 1.1644 0.0000 0.0000 17.2341 3.8912 7.7690 10.0382 -0.0000 0.0000 -15.3253 10.9542 14.6579 -7.6297 0.0000 -0.0000 
25.5683 35.2235 75.8645 170.2054 -84.1596 175.7906 17.4431 -4.9587 -3.5149 -22.6151 -31.2669 -0.0475 10.3069 27.8256 5.6547 17.3301 -21.5158 -76.3559 20.2894 -47.3630 15.2150 3.0916 8.4509 -20.1795 -0.0000 0.0000 -0.0000 -0.0000 0.0000 -0.0000 -2.9413 -0.4563 -11.2728 -16.6152 32.9262 86.5024 20.9289 72.8388 -20.0730 1.5081 -9.9736 8.6433 -0.0000 0.0000 -0.0000 -0.0000 0.0000 -0.0000 -25.6920 -3.8383 11.3820 11.5049 0.0000 -0.0000 -12.4806 11.3193 -26.2411 0.7250 0.0000 0.0000 18.4509 4.1680 6.9905 10.1361 -0.0000 0.0000 -15.1335 11.5183 15.1119 -8.4169 0.0000 -0.0000 
24.8599 35.1230 75.9759 171.7200 -83.2590 177.4627 17.2692 -4.7005 -3.5514 -22.6166 -31.1374 -0.3539 10.8609 28.4138 5.6290 18.2202 -21.6651 -76.0941 20.3572 -48.7030 15.5767 3.1328 8.3753 -20.5943 -0.0000 0.0000 -0.0000 -0.0000 0.0000 -0.0000 -3.1438 -0.3358 -11.7699 -16.6975 32.7514 86.2053 21.3299 74.5214 -20.6224 1.8154 -10.4500 9.9123 -0.0000 0.0000 -0.0000 -0.0000 0.0000 -0.0000 -25.5943 -1.9489 11.2959 8.3550 0.0000 -0.0000 -12.7791 10.0203 -27.7862 -0.2636 0.0000 0.0000 19.4573 5.0039 6.2457 10.3955 -0.0000 0.0000 -14.9148 11.5921 15.4126 -9.4146 0.0000 0.0000 
24.1452 35.0194 76.0867 172.6636 -82.3490 178.5641 17.0582 -4.3913 -3.5673 -22.6102 -30.9866 -0.6810 11.3011 28.9197 5.6476 19.1175 -21.8649 -75.8596 20.7093 -49.8399 16.1154 3.0721 8.1218 -20.8015 -0.0000 0.0000 -0.0000 -0.0000 0.0000 -0.0000 -3.2247 -0.2531 -12.3120 -16.8472 32.5619 85.9064 23.1703 75.8587 -22.5393 2.1540 -11.0400 11.1125 -0.0000 0.0000 -0.0000 -0.0000 0.0000 -0.0000 -25.6238 0.0450 11.1963 5.8063 0.0000 -0.0000 -13.3671 8.4874 -29.0745 -1.0014 0.0000 -0.0000 20.3242 5.8522 5.4790 10.9066 -0.0000 -0.0000 -14.7017 11.6820 15.7391 -10.4094 0.0000 -0.0000 
23.4249 34.9234 76.2072 173.6331 -81.4944 179.7706 16.9237 -4.1746 -3.6349 -22.7054 -30.8162 -0.9916 11.5898 29.3856 5.6638 19.9976 -22.1622 -75.5572 20.7072 -50.8843 16.3459 2.9965 7.9133 -20.8179 -0.0000 0.0000 -0.0000 -0.0000 0.0000 -0.0000 -3.4591 -0.2122 -12.7815 -16.8710 32.3904 85.5962 24.8183 76.9592 -24.2528 2.5202 -11.6642 12.2818 -0.0000 0.0000 -0.0000 -0.0000 0.0000 -0.0000 -25.6608 1.6929 10.9005 3.9607 0.0000 -0.0000 -14.0790 7.1674 -29.7823 -1.6238 -0.0000 -0.0000 21.1344 6.4995 4.6127 11.6656 0.0000 0.0000 -14.3863 11.8763 16.2778 -11.6139 -0.0000 -0.0000 
